<svg xmlns="http://www.w3.org/2000/svg" xmlns:xlink="http://www.w3.org/1999/xlink" viewBox="0 0 141.02 63.56"><defs><style>.cls-1{fill:none;}.cls-2{clip-path:url(#clip-path);}.cls-3{fill:#e0e1e1;}</style><clipPath id="clip-path" transform="translate(0 0)"><rect class="cls-1" width="141.03" height="63.56"/></clipPath></defs><g id="Layer_2" data-name="Layer 2"><g id="Layer_1-2" data-name="Layer 1"><g class="cls-2"><g id="Group_19" data-name="Group 19"><path id="Path_13" data-name="Path 13" class="cls-3" d="M70.5,40.53c-2,2.11-3.87,4.08-5.78,6a80.42,80.42,0,0,1-13.47,11,37.73,37.73,0,0,1-16.08,5.84c-9.43,1-18-1.08-25.18-7.53A28.81,28.81,0,0,1,1.51,42.07C-.83,33.92-.59,25.92,3.17,18.23a31.16,31.16,0,0,1,20.47-17c9-2.51,17.57-1.11,25.64,3.54A78,78,0,0,1,64.85,17.24c1.87,1.84,3.66,3.75,5.67,5.81,1.36-1.43,2.57-2.75,3.84-4A103.12,103.12,0,0,1,86.68,8.2,40.49,40.49,0,0,1,104.3.49C111.9-.67,119.2.22,126,4.06a28.12,28.12,0,0,1,12.54,14.53,33.47,33.47,0,0,1,1.58,20.52,32,32,0,0,1-27,24.15,33.13,33.13,0,0,1-21.5-4.5A78.61,78.61,0,0,1,76.19,46.38c-1.87-1.84-3.66-3.76-5.69-5.85m8.81-8.79a3.62,3.62,0,0,0,.22.32c4.12,3.85,8.14,7.81,12.38,11.52A27.25,27.25,0,0,0,104,50a18.41,18.41,0,0,0,14.71-2.46A19,19,0,0,0,126,24.62c-2.7-7.25-9.22-11.63-17.22-11.48-5.2.1-9.8,2-14.08,4.85A76.92,76.92,0,0,0,82.17,28.82c-1,1-1.89,1.93-2.85,2.92M61.55,32c-1.11-1.21-2.08-2.35-3.14-3.4A90.41,90.41,0,0,0,46.51,18c-4.66-3.23-9.71-5.32-15.52-4.8-7.27.65-12.42,4.42-15.54,11A18.07,18.07,0,0,0,14,34.4a17.81,17.81,0,0,0,6.38,12.09c4.52,3.7,9.76,4.59,15.39,3.61A28.92,28.92,0,0,0,49,43.72c3.24-2.62,6.25-5.53,9.32-8.35,1.2-1.1,2.27-2.33,3.27-3.37" transform="translate(0 0)"/></g></g></g></g></svg>