<svg xmlns="http://www.w3.org/2000/svg" xmlns:xlink="http://www.w3.org/1999/xlink" viewBox="0 0 167.97 111.06"><defs><style>.cls-1{fill:none;}.cls-2{opacity:0.2;}.cls-3{clip-path:url(#clip-path);}.cls-4{fill:#707070;}</style><clipPath id="clip-path" transform="translate(0 0)"><rect class="cls-1" width="167.97" height="110.99"/></clipPath></defs><g id="Layer_2" data-name="Layer 2"><g id="Layer_1-2" data-name="Layer 1"><g id="Group_22" data-name="Group 22" class="cls-2"><g class="cls-3"><g id="Group_21" data-name="Group 21"><path id="Path_14" data-name="Path 14" class="cls-4" d="M75.24,33.52a5.58,5.58,0,0,0-5.59,5.58h0V71.88a5.59,5.59,0,1,0,11.17,0h0V39.11a5.59,5.59,0,0,0-5.59-5.59h0" transform="translate(0 0)"/><path id="Path_15" data-name="Path 15" class="cls-4" d="M57.92,16.2a5.59,5.59,0,0,0-5.59,5.59h0V89.2a5.59,5.59,0,1,0,11.17,0h0V21.79a5.58,5.58,0,0,0-5.58-5.59h0" transform="translate(0 0)"/><path id="Path_16" data-name="Path 16" class="cls-4" d="M40.41,0a5.59,5.59,0,0,0-5.59,5.59h0V105.4a5.59,5.59,0,0,0,11.18,0V5.59A5.59,5.59,0,0,0,40.41,0h0" transform="translate(0 0)"/><path id="Path_17" data-name="Path 17" class="cls-4" d="M23.09,16.2a5.58,5.58,0,0,0-5.58,5.59h0V89.2a5.59,5.59,0,1,0,11.17,0V21.79a5.59,5.59,0,0,0-5.59-5.59h0" transform="translate(0 0)"/><path id="Path_18" data-name="Path 18" class="cls-4" d="M5.59,32.4A5.59,5.59,0,0,0,0,38H0V73a5.59,5.59,0,1,0,11.17,0V38A5.58,5.58,0,0,0,5.59,32.4h0" transform="translate(0 0)"/><path id="Path_19" data-name="Path 19" class="cls-4" d="M127.56,0A5.58,5.58,0,0,0,122,5.59V105.4a5.59,5.59,0,1,0,11.17.15V5.59A5.58,5.58,0,0,0,127.57,0h0" transform="translate(0 0)"/><path id="Path_20" data-name="Path 20" class="cls-4" d="M110.06,16.2a5.59,5.59,0,0,0-5.59,5.59h0V89.2a5.59,5.59,0,1,0,11.18.15V21.79a5.59,5.59,0,0,0-5.59-5.59h0" transform="translate(0 0)"/><path id="Path_21" data-name="Path 21" class="cls-4" d="M92.74,25a5.59,5.59,0,0,0-5.59,5.59h0V80.45a5.59,5.59,0,0,0,11.18.15V30.54A5.6,5.6,0,0,0,92.74,25h0" transform="translate(0 0)"/><path id="Path_22" data-name="Path 22" class="cls-4" d="M144.88,16.2a5.6,5.6,0,0,0-5.59,5.59h0V89.2a5.59,5.59,0,1,0,11.18.15V21.79a5.59,5.59,0,0,0-5.59-5.59" transform="translate(0 0)"/><path id="Path_23" data-name="Path 23" class="cls-4" d="M162.39,32.4A5.59,5.59,0,0,0,156.8,38h0V73A5.59,5.59,0,0,0,168,73V38a5.58,5.58,0,0,0-5.58-5.59h0" transform="translate(0 0)"/></g></g></g></g></g></svg>